<?xml version="1.0" encoding="UTF-8"?><svg id="Layer_1" xmlns="http://www.w3.org/2000/svg" viewBox="0 0 273.19 141.85"><defs><style>.cls-1{letter-spacing:-.01em;}.cls-2{stroke-dasharray:0 0 6.43 6.43;}.cls-2,.cls-3,.cls-4,.cls-5,.cls-6,.cls-7,.cls-8{fill:none;stroke-miterlimit:10;}.cls-2,.cls-3,.cls-7{stroke:#c1272d;}.cls-9{letter-spacing:0em;}.cls-10{letter-spacing:0em;}.cls-11{letter-spacing:0em;}.cls-12{fill:#006837;}.cls-13{fill:#fff;}.cls-14{fill:#c1272d;}.cls-15{letter-spacing:0em;}.cls-16{letter-spacing:0em;}.cls-3{stroke-dasharray:0 0 4.8 4.8;}.cls-17{font-family:MyriadPro-Regular, 'Myriad Pro';font-size:12px;}.cls-18{letter-spacing:.02em;}.cls-4{stroke-dasharray:0 0 6.24 6.24;}.cls-4,.cls-5,.cls-8{stroke:#006837;}.cls-19{letter-spacing:0em;}.cls-6{stroke:#000;}.cls-20{letter-spacing:0em;}.cls-21{letter-spacing:0em;}.cls-22{letter-spacing:.01em;}.cls-8{stroke-dasharray:0 0 4.17 4.17;}</style></defs><g><line class="cls-6" x1="103.01" y1="98.23" x2="235.83" y2="98.23"/><polygon points="235.1 100.73 239.42 98.23 235.1 95.74 235.1 100.73"/></g><g><path class="cls-13" d="M103.01,134.85c45.47-48.82,90.94-48.82,136.4,0"/><g><path class="cls-6" d="M103.01,134.85c44.64-47.94,89.29-48.81,133.93-2.6"/><polygon points="234.61 133.54 239.42 134.85 238.14 130.03 234.61 133.54"/></g></g><text class="cls-17" transform="translate(153.43 95.31)"><tspan x="0" y="0">GN</tspan><tspan class="cls-1" x="15.65" y="0">M</tspan><tspan x="25.18" y="0">T1</tspan></text><text class="cls-17" transform="translate(241.69 98.23)"><tspan x="0" y="0">ah</tspan><tspan class="cls-18" x="12.44" y="0">c</tspan><tspan class="cls-16" x="18.04" y="0">y</tspan><tspan x="23.62" y="0">s</tspan></text><text class="cls-17" transform="translate(270.06 102.23) scale(.58)"><tspan x="0" y="0">c</tspan></text><text class="cls-17" transform="translate(71.39 98.23)"><tspan x="0" y="0">amet</tspan></text><text class="cls-17" transform="translate(97.17 102.23) scale(.58)"><tspan x="0" y="0">c</tspan></text><text class="cls-17" transform="translate(81.97 134.85)"><tspan x="0" y="0">gly</tspan></text><text class="cls-17" transform="translate(97.17 138.85) scale(.58)"><tspan x="0" y="0">c</tspan></text><text class="cls-17" transform="translate(242.11 134.85)"><tspan x="0" y="0">sa</tspan><tspan class="cls-20" x="10.54" y="0">r</tspan><tspan class="cls-15" x="14.34" y="0">cs</tspan></text><text class="cls-17" transform="translate(266.58 138.85) scale(.58)"><tspan x="0" y="0">c</tspan></text><g><path class="cls-5" d="M83.71,89.71c0-1.02,.04-2.02,.13-3"/><path class="cls-4" d="M84.97,80.58c9.32-32.34,67.63-35.94,76.14-4.21"/><path class="cls-5" d="M161.75,79.44c.15,.97,.26,1.96,.32,2.98"/><polygon class="cls-12" points="160.5 82.08 162.14 84.58 163.49 81.91 160.5 82.08"/></g><g><path class="cls-7" d="M257.5,89.71c0-49.26-75.55-50.44-75.83-5.38"/><rect class="cls-14" x="181.43" y="82.71" width=".5" height="3.25" transform="translate(87.87 261.31) rotate(-86.97)"/></g><text class="cls-17" transform="translate(157.62 31.55)"><tspan x="0" y="0">amet</tspan></text><text class="cls-17" transform="translate(183.39 35.54) scale(.58)"><tspan x="0" y="0">c</tspan></text><g><line class="cls-7" x1="171.53" y1="33.31" x2="171.49" y2="36.31"/><line class="cls-2" x1="171.39" y1="42.74" x2="170.86" y2="78.11"/><line class="cls-7" x1="170.82" y1="81.33" x2="170.77" y2="84.32"/><rect class="cls-14" x="170.52" y="82.7" width=".5" height="3.25" transform="translate(83.91 253.82) rotate(-89.14)"/></g><g><line class="cls-5" y1="7.56" x2="3" y2="7.56"/><line class="cls-8" x1="7.17" y1="7.56" x2="13.42" y2="7.56"/><line class="cls-5" x1="15.5" y1="7.56" x2="18.5" y2="7.56"/><polygon class="cls-12" points="18.07 9.05 20.66 7.56 18.07 6.06 18.07 9.05"/></g><g><line class="cls-7" y1="20.38" x2="3" y2="20.38"/><line class="cls-3" x1="7.8" y1="20.38" x2="15.01" y2="20.38"/><line class="cls-7" x1="17.41" y1="20.38" x2="20.41" y2="20.38"/><rect class="cls-14" x="20.16" y="18.76" width=".5" height="3.25"/></g><g><line class="cls-7" y1="33.21" x2="20.41" y2="33.21"/><rect class="cls-14" x="20.16" y="31.59" width=".5" height="3.25"/></g><text class="cls-17" transform="translate(24.69 10.04)"><tspan x="0" y="0">allos</tspan><tspan class="cls-11" x="22.79" y="0">t</tspan><tspan x="26.69" y="0">e</tspan><tspan class="cls-10" x="32.7" y="0">r</tspan><tspan x="36.67" y="0">ic a</tspan><tspan class="cls-22" x="53.18" y="0">c</tspan><tspan x="58.72" y="0">ti</tspan><tspan class="cls-19" x="65.49" y="0">va</tspan><tspan x="76.95" y="0">tion</tspan></text><text class="cls-17" transform="translate(25.11 22.83)"><tspan x="0" y="0">allos</tspan><tspan class="cls-11" x="22.79" y="0">t</tspan><tspan x="26.69" y="0">e</tspan><tspan class="cls-10" x="32.7" y="0">r</tspan><tspan x="36.67" y="0">ic inhibition</tspan></text><text class="cls-17" transform="translate(25.53 35.61)"><tspan class="cls-9" x="0" y="0">c</tspan><tspan x="5.3" y="0">ompetiti</tspan><tspan class="cls-21" x="48.3" y="0">v</tspan><tspan x="53.95" y="0">e inhibition</tspan></text></svg>